<svg width="375" height="431" viewBox="0 0 375 431" fill="none" xmlns="http://www.w3.org/2000/svg">
<path d="M-4 384.014V-16.8048L375.009 -25C382.952 87.4976 396.752 315.026 388.412 325.158C377.988 337.823 331.822 378.054 280.443 378.054C229.065 378.054 147.902 345.273 127.797 345.273C107.692 345.273 75.6738 348.253 44.4 378.054C19.3809 401.895 1.70872 391.961 -4 384.014Z" fill="#1DADFF" fill-opacity="0.5"/>
<path d="M105.409 407.908C55.3557 400.161 3.61413 339.626 -16 310.327L4.85553 -1.78571H244.694L381 -7V431C366.103 411.384 326.031 371.706 284.916 369.918C233.522 367.684 167.976 417.592 105.409 407.908Z" fill="#1DADFF" fill-opacity="0.2"/>
<path d="M103.635 359.59C32.7312 345.663 -8.33162 278.102 -20 246.062V15.9795L26.9218 -18.8356L252.593 -37L394.103 -18.8356V359.59C400.558 365.14 405.722 375.483 374.739 372.456C336.01 368.672 343.458 326.288 277.916 322.504C212.375 318.72 192.265 376.997 103.635 359.59Z" fill="#1DAEFF"/>
</svg>
