<svg width="132" height="100" viewBox="0 0 132 100" fill="none" xmlns="http://www.w3.org/2000/svg">
<path fill-rule="evenodd" clip-rule="evenodd" d="M58.3961 36.8311L31.3121 65.8637C28.5119 68.8496 32.1843 71.6977 34.8927 69.1252L41.2276 82.3093L5.69707 85.433C1.73079 79.7374 -0.172033 72.8567 0.303835 65.9308C0.779703 59.005 3.6057 52.4496 8.31366 47.3508L42.2834 11.4736C56.8354 -4.09928 75.7023 -3.50209 89.4739 11.3358L99.068 21.5798C83.0012 16.7104 70.1019 24.2442 58.3961 36.8311Z" fill="white"/>
<path fill-rule="evenodd" clip-rule="evenodd" d="M58.3961 36.8311L31.3121 65.8637C28.5119 68.8496 32.1843 71.6977 34.8927 69.1252L41.2276 82.3093L5.69707 85.433C1.73079 79.7374 -0.172033 72.8567 0.303835 65.9308C0.779703 59.005 3.6057 52.4496 8.31366 47.3508L42.2834 11.4736C56.8354 -4.09928 75.7023 -3.50209 89.4739 11.3358L99.068 21.5798C83.0012 16.7104 70.1019 24.2442 58.3961 36.8311Z" fill="white"/>
<path fill-rule="evenodd" clip-rule="evenodd" d="M73.4539 36.8282L100.63 65.8148C103.43 68.8007 100.354 71.9704 97.095 68.9385C90.806 70.5004 107.561 94.4339 100.767 99.487C128.586 98.8439 140.934 66.366 124.592 48.9557L89.4747 11.4706C74.9687 -4.05626 56.1017 -3.50501 42.2384 11.4706L32.6442 21.7147C48.8487 16.7075 61.9317 24.2872 73.4539 36.8282Z" fill="white"/>
<path fill-rule="evenodd" clip-rule="evenodd" d="M74.7396 88.2324C93.423 107.802 123.858 100.636 130.744 76.013C116.146 85.8436 102.191 74.7727 89.7505 61.7264C75.1068 46.3833 56.3775 46.7508 42.5142 61.7264L32.92 71.9705C50.5476 66.5039 63.2174 76.1967 74.7396 88.2324Z" fill="white"/>
<path fill-rule="evenodd" clip-rule="evenodd" d="M74.7396 88.2324C93.423 107.802 123.858 100.636 130.744 76.013C116.146 85.8436 102.191 74.7727 89.7505 61.7264C75.1068 46.3833 56.3775 46.7508 42.5142 61.7264L32.92 71.9705C50.5476 66.5039 63.2174 76.1967 74.7396 88.2324Z" fill="white"/>
<path fill-rule="evenodd" clip-rule="evenodd" d="M57.3409 88.2321C38.6117 107.801 8.2225 100.635 1.33673 76.0127C15.9346 85.8433 29.8438 74.7264 42.33 61.7261C56.6983 46.7505 74.4635 46.4289 89.5663 61.2667L100.033 71.327C82.3592 66.0442 68.8172 76.1964 57.3409 88.2321Z" fill="white"/>
</svg>
